<svg xmlns="http://www.w3.org/2000/svg" viewBox="0 0 24 24">
  <path fill="#fff" d="m14.671 7.928-3.527-2.116c-.387-.232-.868-.237-1.259-.017-.392.222-.635.639-.635 1.088v4.233c0 .45.243.867.635 1.088.19.107.403.162.615.162.223 0 .445-.06.643-.178l3.528-2.117c.38-.228.607-.628.607-1.072s-.228-.844-.607-1.072Zm-3.921 2.747v-3.35L13.542 9l-2.792 1.675Zm10 9.325c0 .414-.336.75-.75.75h-2.25V21c0 .414-.336.75-.75.75s-.75-.336-.75-.75v-.25H4c-.414 0-.75-.336-.75-.75s.336-.75.75-.75h12.25V19c0-.414.336-.75.75-.75s.75.336.75.75v.25H20c.414 0 .75.336.75.75ZM18 2.25H6C4.483 2.25 3.25 3.483 3.25 5v8c0 1.517 1.233 2.75 2.75 2.75h12c1.517 0 2.75-1.233 2.75-2.75V5c0-1.517-1.233-2.75-2.75-2.75ZM19.25 13c0 .689-.561 1.25-1.25 1.25H6c-.689 0-1.25-.561-1.25-1.25V5c0-.689.561-1.25 1.25-1.25h12c.689 0 1.25.561 1.25 1.25v8Z"/>
</svg>