<svg width="219" height="254" viewBox="0 0 219 254" fill="none" xmlns="http://www.w3.org/2000/svg">
<g clip-path="url(#clip0_87_1032)">
<mask id="mask0_87_1032" style="mask-type:luminance" maskUnits="userSpaceOnUse" x="0" y="0" width="219" height="254">
<path d="M218.027 0H0.041626V254H218.027V0Z" fill="white"/>
</mask>
<g mask="url(#mask0_87_1032)">
<path d="M40.9141 -0.403473H177.249C199.829 -0.403473 218.026 17.7936 218.026 40.3733V172.612C218.026 186.998 210.595 200.336 198.209 207.577L130.089 248.544C117.132 256.357 100.936 256.357 88.1694 248.544L19.8588 207.577C7.47338 200.336 0.0421143 186.998 0.0421143 172.612V40.3733C0.0421143 17.7936 18.3345 -0.403473 40.9141 -0.403473Z" fill="url(#paint0_linear_87_1032)"/>
<path d="M18.6198 128.867C17.8536 129.02 17.0997 129.558 16.6067 130.217C16.1137 130.875 15.9478 131.716 16.1049 132.61C16.9487 136.889 19.064 140.741 22.1817 143.79C22.513 144.1 22.778 144.349 22.9767 144.535C30.3056 150.663 40.3855 152.396 49.4687 149.085L57.5992 146.126C57.7898 146.056 57.9181 146.052 58.0424 145.919L66.9438 140.944C67.8261 140.401 68.3771 139.548 68.5389 138.579C68.7007 137.61 68.2826 136.595 67.6201 135.974L64.1753 132.743C65.2902 129.43 65.7632 126.137 65.7185 122.733C65.6897 121.834 65.2758 120.948 64.5512 120.393C63.8266 119.838 62.9197 119.61 62.0251 119.767L18.6198 128.867Z" fill="#FFA91F"/>
<path d="M201.868 132.576C202.021 131.809 201.855 130.969 201.366 130.182C200.873 129.524 200.181 129.052 199.353 128.832L156.01 119.799C155.115 119.641 154.146 119.803 153.484 120.425C152.759 120.98 152.345 121.866 152.317 122.765C152.276 126.041 152.811 129.399 153.673 132.576L150.228 135.807C149.5 136.491 149.148 137.443 149.243 138.474C149.405 139.443 150.018 140.363 150.839 140.839L159.74 145.815C159.93 145.885 160.055 146.017 160.183 146.021L168.314 148.981C177.525 152.295 187.477 150.558 194.868 144.497C195.133 144.248 195.526 144.004 195.857 143.693C198.909 140.706 201.024 136.854 201.868 132.576Z" fill="#FFA91F"/>
<path d="M21.6442 103.009C20.8771 102.985 20.0362 103.332 19.4182 103.853C18.8002 104.373 18.4547 105.14 18.4063 106.031C18.263 110.312 19.431 114.468 21.7366 118.078C21.9844 118.449 22.1828 118.745 22.3315 118.968C27.9822 126.459 37.2412 130.357 46.6674 129.207L55.1039 128.183C55.3019 128.158 55.4256 128.182 55.574 128.083L65.1961 125.3C66.1607 124.977 66.8775 124.284 67.2476 123.392C67.6177 122.501 67.4432 121.437 66.9474 120.696L64.3694 116.839C66.1722 113.917 67.3562 110.872 68.0699 107.605C68.242 106.738 68.0429 105.798 67.473 105.106C66.903 104.414 66.086 103.994 65.1951 103.946L21.6442 103.009Z" fill="#FFB74F"/>
<path d="M199.538 106.001C199.514 105.234 199.169 104.467 198.526 103.823C197.908 103.302 197.141 103.004 196.3 102.979L152.823 103.966C151.932 104.014 151.041 104.384 150.545 105.126C149.975 105.818 149.776 106.758 149.949 107.624C150.638 110.768 151.896 113.862 153.426 116.71L150.848 120.567C150.303 121.382 150.178 122.372 150.499 123.338C150.869 124.229 151.66 124.972 152.55 125.245L162.172 128.028C162.37 128.053 162.519 128.152 162.642 128.128L171.079 129.152C180.629 130.277 189.764 126.404 195.489 118.963C195.687 118.666 196.009 118.345 196.257 117.974C198.513 114.438 199.681 110.282 199.538 106.001Z" fill="#FFB74F"/>
<path d="M27.1052 75.6643C26.3713 75.4637 25.4802 75.6039 24.764 75.9624C24.0478 76.321 23.537 76.9808 23.284 77.8283C22.1545 81.9219 22.318 86.1983 23.7046 90.212C23.8576 90.6269 23.9801 90.9589 24.0719 91.2078C27.7844 99.7372 35.8071 105.639 45.1599 106.714L53.5298 107.68C53.7264 107.702 53.84 107.754 54.006 107.693L63.926 107.239C64.9306 107.151 65.7822 106.648 66.3453 105.875C66.9085 105.101 66.9866 104.035 66.6805 103.206L65.0885 98.8905C67.5031 96.4913 69.3496 93.8302 70.7941 90.8461C71.1607 90.0509 71.1865 89.0986 70.7974 88.2994C70.4082 87.5002 69.7178 86.9064 68.8703 86.6534L27.1052 75.6643Z" fill="#FFC473"/>
<path d="M194.632 77.8086C194.432 77.0746 193.921 76.4148 193.152 75.9427C192.436 75.5841 191.628 75.4746 190.811 75.6446L149.129 86.6643C148.282 86.9172 147.508 87.4804 147.202 88.3102C146.813 89.1094 146.839 90.0617 147.205 90.8569C148.597 93.7274 150.527 96.4191 152.662 98.8095L151.07 103.125C150.733 104.037 150.842 105.02 151.374 105.877C151.938 106.65 152.872 107.183 153.794 107.241L163.714 107.695C163.91 107.673 164.076 107.735 164.19 107.682L172.56 106.716C182.026 105.589 189.935 99.7392 193.731 91.2404C193.853 90.9085 194.089 90.5242 194.242 90.1093C195.598 86.1785 195.762 81.9021 194.632 77.8086Z" fill="#FFC473"/>
<path d="M33.7056 47.2216C33.0246 46.8337 32.0998 46.7456 31.2935 46.9201C30.4872 47.0946 29.8088 47.6222 29.3396 48.4031C27.1656 52.1983 26.2349 56.5066 26.5915 60.8658C26.6381 61.3189 26.6753 61.6814 26.7033 61.9533C28.2253 71.4127 34.7198 79.3536 43.7761 82.8183L51.8797 85.923C52.0702 85.995 52.1702 86.0763 52.3514 86.0577L62.3648 88.1419C63.3896 88.3113 64.3678 88.0275 65.1275 87.3999C65.8872 86.7724 66.2378 85.7289 66.1446 84.8227L65.6601 80.1103C68.6828 78.3343 71.2058 76.1517 73.4104 73.5439C73.9795 72.8444 74.2488 71.9009 74.065 71.004C73.8812 70.1071 73.3443 69.338 72.5634 68.8688L33.7056 47.2216Z" fill="#FFDBA9"/>
<path d="M189.504 48.3997C189.116 47.7187 188.438 47.1911 187.55 46.9167C186.744 46.7422 185.91 46.8396 185.138 47.2181L146.371 68.8747C145.59 69.3439 144.962 70.1036 144.869 71.0099C144.685 71.9068 144.955 72.8503 145.524 73.5498C147.647 76.0576 150.261 78.2496 153.002 80.0883L152.518 84.8006C152.415 85.7975 152.775 86.7503 153.526 87.4685C154.285 88.0961 155.354 88.3892 156.288 88.2105L166.302 86.1263C166.492 86.0543 166.674 86.0729 166.773 85.9916L174.877 82.8868C184.033 79.3408 190.428 71.4813 192.04 62.0312C192.078 61.6687 192.215 61.2249 192.262 60.7718C192.609 56.5032 191.678 52.1948 189.504 48.3997Z" fill="#FFDBA9"/>
<mask id="mask1_87_1032" style="mask-type:alpha" maskUnits="userSpaceOnUse" x="0" y="-1" width="219" height="256">
<path d="M40.9141 -0.403473H177.249C199.829 -0.403473 218.026 17.7936 218.026 40.3733V172.612C218.026 186.998 210.595 200.336 198.209 207.577L130.089 248.544C117.132 256.357 100.936 256.357 88.1694 248.544L19.8588 207.577C7.47338 200.336 0.0421143 186.998 0.0421143 172.612V40.3733C0.0421143 17.7936 18.3345 -0.403473 40.9141 -0.403473Z" fill="url(#paint1_linear_87_1032)"/>
</mask>
<g mask="url(#mask1_87_1032)">
<path d="M157.584 73.9599C150.661 70.9373 145.103 65.282 141.983 58.3592C141.495 57.0916 140.228 56.3116 138.96 56.3116H79.8723C78.6047 56.2141 77.3372 56.9941 76.8496 58.2617C73.827 65.282 68.2692 70.8398 61.2489 73.8624C60.0788 74.35 59.2013 75.6175 59.2013 76.9826V133.633C59.2013 157.131 67.6842 189.015 107.954 207.346C108.831 207.736 109.806 207.736 110.684 207.346C142.568 192.721 159.436 167.174 159.436 133.633V76.9826C159.631 75.6175 158.851 74.4475 157.584 73.9599Z" fill="#FFDF47"/>
<path d="M141.69 146.016C141.593 146.016 141.398 146.016 141.3 146.016C139.545 145.723 138.278 144.066 138.57 142.213C138.96 138.996 139.155 135.778 139.155 132.56V112.474C139.155 110.622 140.618 109.159 142.373 109.159C144.128 109.159 145.59 110.622 145.59 112.474V132.658C145.59 136.168 145.395 139.678 144.908 143.188C144.713 144.846 143.348 146.016 141.69 146.016Z" fill="#FFF5CB"/>
<path d="M103.468 190.088C102.883 190.088 102.298 189.893 101.811 189.6C95.8631 186.285 90.5978 181.703 86.3076 176.242C85.1376 174.682 85.4301 172.537 86.8926 171.367C88.3552 170.197 90.4028 170.49 91.5729 171.952C95.278 176.73 99.8608 180.63 105.029 183.458C106.394 184.238 106.979 185.798 106.589 187.358C106.296 189.015 105.029 190.088 103.468 190.088Z" fill="#FFF5CB"/>
<path d="M138.318 96.5576C137.928 95.2901 136.855 94.4125 135.587 94.2175L119.597 91.8774L112.479 77.5442C111.894 76.4717 110.724 75.7891 109.456 75.7891C108.189 75.7891 107.116 76.4717 106.434 77.5442L99.3157 91.9749L83.325 94.315C82.0574 94.51 80.9848 95.3876 80.5948 96.6551C80.2048 97.9227 80.4973 99.1902 81.4724 100.068L92.9779 111.281L90.2478 127.174C90.0528 128.442 90.5403 129.709 91.6129 130.489C92.6854 131.269 94.0505 131.367 95.123 130.782L109.359 123.274L123.692 130.782C124.179 131.074 124.667 131.172 125.252 131.172C126.227 131.172 127.202 130.782 127.787 130.002C128.47 129.222 128.665 128.247 128.567 127.272L125.837 111.378L137.343 100.165C138.318 99.0927 138.708 97.8252 138.318 96.5576Z" fill="#FFA91F"/>
<path d="M92.5879 142.97H126.227C129.932 142.97 132.955 145.992 132.955 149.698V156.425C132.955 160.131 129.932 163.153 126.227 163.153H92.5879C88.8828 163.153 85.8601 160.131 85.8601 156.425V149.698C85.8601 145.992 88.8828 142.97 92.5879 142.97Z" fill="#FFA91F"/>
</g>
</g>
</g>
<defs>
<linearGradient id="paint0_linear_87_1032" x1="108.608" y1="43.6211" x2="110.053" y2="253.573" gradientUnits="userSpaceOnUse">
<stop stop-color="#FFCA00"/>
<stop offset="0.5" stop-color="#FFB329"/>
<stop offset="1" stop-color="#FF9C52"/>
</linearGradient>
<linearGradient id="paint1_linear_87_1032" x1="108.608" y1="43.6211" x2="110.053" y2="253.573" gradientUnits="userSpaceOnUse">
<stop stop-color="#FFCA00"/>
<stop offset="0.5" stop-color="#FFB329"/>
<stop offset="1" stop-color="#FF9C52"/>
</linearGradient>
<clipPath id="clip0_87_1032">
<rect width="218.068" height="254" fill="white"/>
</clipPath>
</defs>
</svg>
