<svg width="430" height="602" viewBox="0 0 430 602" fill="none" xmlns="http://www.w3.org/2000/svg">
<path opacity="0.1" fill-rule="evenodd" clip-rule="evenodd" d="M215 421C281.274 421 335 367.274 335 301C335 234.726 281.274 181 215 181C148.726 181 95 234.726 95 301C95 367.274 148.726 421 215 421Z" fill="white"/>
<path opacity="0.1" fill-rule="evenodd" clip-rule="evenodd" d="M215 511C330.98 511 425 416.98 425 301C425 185.02 330.98 91 215 91C99.0202 91 5 185.02 5 301C5 416.98 99.0202 511 215 511Z" stroke="white" stroke-width="1.5"/>
<path opacity="0.1" fill-rule="evenodd" clip-rule="evenodd" d="M215 601C380.685 601 515 466.685 515 301C515 135.315 380.685 1 215 1C49.3146 1 -85 135.315 -85 301C-85 466.685 49.3146 601 215 601Z" stroke="white" stroke-width="1.5"/>
</svg>
