<svg width="103" height="103" viewBox="0 0 103 103" fill="none" xmlns="http://www.w3.org/2000/svg">
<g clip-path="url(#clip0_67_5299)">
<mask id="mask0_67_5299" style="mask-type:luminance" maskUnits="userSpaceOnUse" x="0" y="-7" width="103" height="128">
<path d="M102.982 -6.51384H0.0185547V120.709H102.982V-6.51384Z" fill="white"/>
</mask>
<g mask="url(#mask0_67_5299)">
<g opacity="0.5">
<path d="M51.5001 2.96985C77.8106 2.96985 99.1726 24.3741 99.1726 50.7365C99.1726 77.099 77.8106 98.5032 51.5001 98.5032C25.1897 98.5032 3.82764 77.099 3.82764 50.7365C3.82764 24.3741 25.1897 2.96985 51.5001 2.96985Z" fill="#D9EAFF"/>
</g>
<g opacity="0.7">
<path d="M51.5003 20.5501C72.969 20.5501 90.4 38.0155 90.4 59.5267C90.4 81.0378 72.969 98.5032 51.5003 98.5032C30.0315 98.5032 12.6006 81.0378 12.6006 59.5267C12.6006 38.0155 30.0315 20.5501 51.5003 20.5501Z" fill="#75B2F9"/>
</g>
<path d="M51.5003 40.4427C68.1276 40.4427 81.6276 53.9695 81.6276 70.6296C81.6276 87.2897 68.1276 100.816 51.5003 100.816C34.8731 100.816 21.373 87.2897 21.373 70.6296C21.373 53.9695 34.8731 40.4427 51.5003 40.4427Z" fill="#4A90E2"/>
<path d="M30.8384 38.3613V35.759" stroke="white" stroke-width="5.68182" stroke-linecap="round"/>
<path d="M33.3123 39.7927L35.5723 38.4853" stroke="white" stroke-width="5.7089" stroke-linecap="round"/>
<path d="M33.3126 42.655L35.6016 43.9791" stroke="white" stroke-width="5.78236" stroke-linecap="round"/>
<path d="M30.8384 44.0863V46.7842" stroke="white" stroke-width="5.89056" stroke-linecap="round"/>
<path d="M28.3643 42.655L25.9805 44.034" stroke="white" stroke-width="6.02188" stroke-linecap="round"/>
<path d="M28.3642 39.7927L25.9238 38.3809" stroke="white" stroke-width="6.16477" stroke-linecap="round"/>
<g opacity="0.0102087">
<path d="M83.3815 23.534L79.6416 27.2813L83.3815 23.534Z" fill="#4DD1D1"/>
<path d="M83.3815 23.534L79.6416 27.2813" stroke="#FFB633" stroke-width="5.11364" stroke-linecap="round"/>
<path d="M79.6416 23.534L83.3815 27.2813L79.6416 23.534Z" fill="#4DD1D1"/>
<path d="M79.6416 23.534L83.3815 27.2813" stroke="#FFB633" stroke-width="5.11364" stroke-linecap="round"/>
</g>
<g opacity="0.518345">
<path d="M62.6392 34.6699L63.2574 35.925L64.6398 36.1262L63.6395 37.1032L63.8756 38.4827L62.6392 37.8314L61.4028 38.4827L61.6389 37.1032L60.6387 36.1262L62.021 35.925L62.6392 34.6699Z" stroke="white" stroke-width="3.06818" stroke-linecap="round" stroke-linejoin="round"/>
</g>
<g opacity="0.8">
<path d="M17.7025 52.0486L15.787 52.4821L14.4076 53.8827L13.9749 51.9634L12.5771 50.5813L14.4926 50.1477L15.872 48.7472L16.3047 50.6665L17.7025 52.0486Z" fill="#FDFDFD"/>
</g>
<g opacity="0.281655">
<path d="M69.3249 55.1455L68.6416 55.3588L68.1496 56.0476L67.9952 55.1036L67.4966 54.4238L68.1799 54.2106L68.672 53.5217L68.8263 54.4657L69.3249 55.1455Z" fill="#D12598"/>
</g>
<g opacity="0.8">
<path d="M25.7376 64.9372L24.0705 64.5116L22.4386 65.0539L22.8616 63.3846L22.3183 61.7494L23.9855 62.175L25.6174 61.6327L25.1944 63.302L25.7376 64.9372Z" fill="#FE9442"/>
</g>
<g opacity="0.659588">
<path d="M10.8113 72.3126C11.5089 72.3126 12.0753 72.8801 12.0753 73.579C12.0753 74.278 11.5089 74.8455 10.8113 74.8455C10.1137 74.8455 9.54736 74.278 9.54736 73.579C9.54736 72.8801 10.1137 72.3126 10.8113 72.3126Z" stroke="#FF335F" stroke-width="2.40835"/>
</g>
</g>
</g>
<defs>
<clipPath id="clip0_67_5299">
<rect width="103" height="103" fill="white"/>
</clipPath>
</defs>
</svg>
