<svg width="21" height="21" viewBox="0 0 21 21" fill="none" xmlns="http://www.w3.org/2000/svg">
<g clip-path="url(#clip0_67_4958)">
<path d="M18.8447 15.58C18.3454 12.5942 16.5876 7.13157 13.1253 5.31802C13.1714 5.23054 13.2072 5.13259 13.2072 5.02745V4.8842C13.2072 4.61582 13.0294 4.38868 12.7913 4.30057L13.6343 1.16182C13.6957 0.949048 13.6596 0.755961 13.5392 0.63208C13.4184 0.508354 13.2253 0.469612 13.0032 0.528507C12.99 0.532412 11.7008 0.944049 11.2712 1.06762C10.9675 1.15479 10.4534 1.1551 10.1487 1.0684C9.71429 0.944674 8.41174 0.531475 8.39065 0.52507C8.17647 0.468987 7.98416 0.508042 7.86341 0.631767C7.74296 0.755961 7.70891 0.948892 7.76921 1.15901L8.61638 4.30041C8.37909 4.38899 8.20818 4.61613 8.20818 4.8842V5.02745C8.20818 5.13259 8.23677 5.23023 8.28285 5.31708C5.05162 7.00925 3.17981 11.8791 2.55634 15.5797C2.33138 16.9152 2.66991 18.2436 3.48568 19.2084C4.17524 20.0234 5.1202 20.5 6.07892 20.5H15.3222C16.2794 20.5 17.2233 20.0246 17.9117 19.2112C18.7283 18.2465 19.0682 16.9173 18.8447 15.58Z" fill="white"/>
</g>
<defs>
<clipPath id="clip0_67_4958">
<rect width="20" height="20" fill="white" transform="translate(0.700195 0.5)"/>
</clipPath>
</defs>
</svg>
