<svg width="219" height="254" viewBox="0 0 219 254" fill="none" xmlns="http://www.w3.org/2000/svg">
<g clip-path="url(#clip0_87_986)">
<mask id="mask0_87_986" style="mask-type:luminance" maskUnits="userSpaceOnUse" x="0" y="0" width="219" height="254">
<path d="M218.027 0H0.041626V254H218.027V0Z" fill="white"/>
</mask>
<g mask="url(#mask0_87_986)">
<path d="M40.9141 -0.403503H177.249C199.829 -0.403503 218.026 17.7936 218.026 40.3732V172.612C218.026 186.998 210.595 200.336 198.209 207.577L130.089 248.544C117.132 256.357 100.936 256.357 88.1694 248.544L19.8588 207.577C7.47338 200.336 0.0421143 186.998 0.0421143 172.612V40.3732C0.0421143 17.7936 18.3345 -0.403503 40.9141 -0.403503Z" fill="url(#paint0_linear_87_986)"/>
<mask id="mask1_87_986" style="mask-type:alpha" maskUnits="userSpaceOnUse" x="0" y="-1" width="219" height="256">
<path d="M40.9141 -0.403503H177.249C199.829 -0.403503 218.026 17.7936 218.026 40.3732V172.612C218.026 186.998 210.595 200.336 198.209 207.577L130.089 248.544C117.132 256.357 100.936 256.357 88.1694 248.544L19.8588 207.577C7.47338 200.336 0.0421143 186.998 0.0421143 172.612V40.3732C0.0421143 17.7936 18.3345 -0.403503 40.9141 -0.403503Z" fill="url(#paint1_linear_87_986)"/>
</mask>
<g mask="url(#mask1_87_986)">
<path d="M211.991 -16.2685L182.613 -35.7504C174.772 -40.9077 164.147 -38.7811 158.895 -31.0358L105.437 45.3702C104.101 47.1643 104.088 49.6284 105.121 51.6239L137.161 107.134C138.195 108.94 140.084 110.087 142.169 110.192C144.444 110.204 146.724 109.078 148.155 107.095L216.704 7.63884L216.799 7.54453C222.052 -0.390337 219.925 -11.016 211.991 -16.2685Z" fill="#FF3636"/>
<path d="M148.196 98.9441L59.5696 -31.1551C57.0297 -34.9589 53.2516 -37.5368 48.8019 -38.5069C44.3523 -39.477 39.7041 -38.6474 35.9003 -36.1075L6.32847 -16.9215C-1.65873 -11.7488 -3.8918 -1.14507 1.28083 6.84213L1.37513 6.93738L68.6484 104.99C69.4008 106.131 70.6296 106.8 71.9564 106.807L142.264 110.193C143.685 110.2 145.109 109.828 146.345 108.981C149.579 106.628 150.455 102.178 148.196 98.9441Z" fill="#FF712F"/>
</g>
<mask id="mask2_87_986" style="mask-type:alpha" maskUnits="userSpaceOnUse" x="0" y="-1" width="219" height="256">
<path d="M40.9141 -0.403503H177.249C199.829 -0.403503 218.026 17.7936 218.026 40.3732V172.612C218.026 186.998 210.595 200.336 198.209 207.577L130.089 248.544C117.132 256.357 100.936 256.357 88.1694 248.544L19.8588 207.577C7.47338 200.336 0.0421143 186.998 0.0421143 172.612V40.3732C0.0421143 17.7936 18.3345 -0.403503 40.9141 -0.403503Z" fill="url(#paint2_linear_87_986)"/>
</mask>
<g mask="url(#mask2_87_986)">
<path d="M169.759 145.872C169.59 179.706 141.872 207.147 108.037 206.977C74.203 206.808 46.7621 179.09 46.9319 145.256C47.1017 111.421 74.8194 83.9803 108.654 84.1501C142.488 84.3198 169.929 112.038 169.759 145.872Z" fill="#FFD561"/>
<path d="M140.101 144.491L130.197 154.014L132.404 167.483C132.956 170.708 131.614 173.829 129.045 175.712C126.382 177.594 123.063 177.862 120.228 176.331L108.129 169.92L95.9656 176.209C94.7302 176.867 93.402 177.144 92.0751 177.138C90.3692 177.129 88.6661 176.552 87.1549 175.502C84.5108 173.593 83.2944 170.459 83.8792 167.24L86.2213 153.793L76.4129 144.171C74.1497 141.885 73.3134 138.564 74.3711 135.537C75.3341 132.508 77.9987 130.342 81.2234 129.884L94.7861 127.962L100.913 115.672C102.349 112.836 105.296 111.05 108.424 111.065C110.035 111.074 111.549 111.555 112.872 112.32C114.195 113.18 115.232 114.322 115.983 115.747L121.986 128.099L135.529 130.157C138.749 130.647 141.297 132.84 142.324 135.878C143.256 139.01 142.387 142.323 140.101 144.491Z" fill="#FFF2D4"/>
</g>
<mask id="mask3_87_986" style="mask-type:alpha" maskUnits="userSpaceOnUse" x="46" y="84" width="124" height="123">
<path d="M169.759 145.872C169.59 179.706 141.872 207.147 108.037 206.977C74.203 206.808 46.7621 179.09 46.9319 145.256C47.1017 111.421 74.8194 83.9803 108.654 84.1501C142.488 84.3198 169.929 112.038 169.759 145.872Z" fill="#FFD561"/>
<path d="M140.101 144.491L130.197 154.014L132.404 167.483C132.956 170.708 131.614 173.829 129.045 175.712C126.382 177.594 123.063 177.862 120.228 176.331L108.129 169.92L95.9656 176.209C94.7302 176.867 93.402 177.144 92.0751 177.138C90.3692 177.129 88.6661 176.552 87.1549 175.502C84.5108 173.593 83.2944 170.459 83.8792 167.24L86.2213 153.793L76.4129 144.171C74.1497 141.885 73.3134 138.564 74.3711 135.537C75.3341 132.508 77.9987 130.342 81.2234 129.884L94.7861 127.962L100.913 115.672C102.349 112.836 105.296 111.05 108.424 111.065C110.035 111.074 111.549 111.555 112.872 112.32C114.195 113.18 115.232 114.322 115.983 115.747L121.986 128.099L135.529 130.157C138.749 130.647 141.297 132.84 142.324 135.878C143.256 139.01 142.387 142.323 140.101 144.491Z" fill="#FFF2D4"/>
</mask>
<g mask="url(#mask3_87_986)">
<g opacity="0.74268">
<path d="M209.691 -38.5668L132.449 248.459H108.086L185.328 -38.5668H209.691Z" fill="white"/>
</g>
</g>
</g>
</g>
<defs>
<linearGradient id="paint0_linear_87_986" x1="0.0897464" y1="-0.449238" x2="218.097" y2="254.521" gradientUnits="userSpaceOnUse">
<stop stop-color="#FFCA00"/>
<stop offset="0.5" stop-color="#FFB329"/>
<stop offset="1" stop-color="#FF9C52"/>
</linearGradient>
<linearGradient id="paint1_linear_87_986" x1="0.0897464" y1="-0.449238" x2="218.097" y2="254.521" gradientUnits="userSpaceOnUse">
<stop stop-color="#FFCA00"/>
<stop offset="0.5" stop-color="#FFB329"/>
<stop offset="1" stop-color="#FF9C52"/>
</linearGradient>
<linearGradient id="paint2_linear_87_986" x1="0.0897464" y1="-0.449238" x2="218.097" y2="254.521" gradientUnits="userSpaceOnUse">
<stop stop-color="#FFCA00"/>
<stop offset="0.5" stop-color="#FFB329"/>
<stop offset="1" stop-color="#FF9C52"/>
</linearGradient>
<clipPath id="clip0_87_986">
<rect width="218.068" height="254" fill="white"/>
</clipPath>
</defs>
</svg>
