<svg width="17" height="17" viewBox="0 0 17 17" fill="none" xmlns="http://www.w3.org/2000/svg">
<path d="M9.56006 8.27307C11.2923 8.27307 12.6966 6.8688 12.6966 5.13654C12.6966 3.40428 11.2923 2 9.56006 2C7.8278 2 6.42353 3.40428 6.42353 5.13654C6.42353 6.8688 7.8278 8.27307 9.56006 8.27307Z" fill="white"/>
<path d="M14.9931 13.7646C15.0548 14.1933 14.6979 14.5461 14.2649 14.5461L4.85526 14.5461C4.42219 14.5461 4.06537 14.1933 4.12702 13.7646C4.29485 12.5978 4.83543 11.5082 5.6788 10.6649C6.70817 9.6355 8.10431 9.05721 9.56006 9.05721C11.0158 9.05721 12.412 9.6355 13.4413 10.6649C14.2847 11.5082 14.8253 12.5978 14.9931 13.7646Z" fill="white"/>
<path d="M6.43115 8.45151C6.70795 8.20164 6.64275 7.78212 6.4193 7.48358C5.92954 6.82923 5.63947 6.01676 5.63947 5.13654C5.63947 4.76722 5.44158 4.39626 5.07382 4.36241C5.00191 4.35579 4.92906 4.3524 4.85542 4.3524C3.55623 4.3524 2.50302 5.40561 2.50302 6.7048C2.50302 8.004 3.55623 9.05721 4.85542 9.05721C5.46152 9.05721 6.01408 8.82799 6.43115 8.45151Z" fill="white"/>
<path d="M5.12441 10.1104C5.2194 10.0154 5.16646 9.85138 5.03226 9.84533C4.97348 9.84267 4.91452 9.84134 4.85543 9.84134C3.8156 9.84134 2.81836 10.2544 2.08309 10.9897C1.5342 11.5386 1.16487 12.2335 1.0129 12.9831C0.926851 13.4075 1.28582 13.762 1.71889 13.762L3.22943 13.762C3.29125 13.762 3.34215 13.7142 3.35095 13.653C3.54276 12.3195 4.16054 11.0743 5.12441 10.1104Z" fill="white"/>
</svg>
