<?xml version="1.0" encoding="UTF-8"?>
<svg version="1.1" xmlns="http://www.w3.org/2000/svg" width="512" height="512">
<path d="M0 0 C1.36082079 -0.00390186 2.72164039 -0.0082395 4.0824585 -0.01298523 C6.91975875 -0.02039416 9.75693448 -0.0201961 12.59423828 -0.01489258 C16.1854597 -0.00911647 19.77616223 -0.02600969 23.36729813 -0.04923725 C26.17475234 -0.06415238 28.98208683 -0.06482234 31.78957367 -0.06172752 C33.74281602 -0.06247339 35.69604014 -0.07620084 37.64923096 -0.09040833 C49.33251347 -0.03098601 61.46644495 1.264942 71.921875 6.86328125 C72.91489624 7.38317627 72.91489624 7.38317627 73.92797852 7.91357422 C88.42741036 15.84984624 98.20043488 28.81271458 103.015625 44.484375 C104.37503189 50.31849624 104.80198393 55.99326055 104.83300781 61.97338867 C104.83797272 62.70616028 104.84293762 63.43893188 104.84805298 64.19390869 C104.86255659 66.59803233 104.86945737 69.00208995 104.875 71.40625 C104.87924107 72.64841498 104.87924107 72.64841498 104.88356781 73.91567421 C104.89851387 78.29966165 104.90777179 82.68361658 104.91210938 87.06762695 C104.91758182 91.56496118 104.94159706 96.06199082 104.97008133 100.55922985 C104.98883 104.04509819 104.99391981 107.53089499 104.99544525 111.01680946 C104.99844567 112.67318699 105.00638433 114.32956406 105.01963043 115.98589134 C105.12545375 130.2372754 104.06869588 142.82361354 94.671875 154.30078125 C88.37606219 160.49253103 80.78253005 166.30078125 71.671875 166.30078125 C71.67740576 167.37696874 71.67740576 167.37696874 71.68304825 168.47489738 C71.77152558 185.9615627 71.8376459 203.44817089 71.87912369 220.93501091 C71.89971707 229.39165174 71.92777568 237.84814281 71.97363281 246.3046875 C72.01359968 253.6785426 72.03933124 261.05228921 72.04822898 268.42624962 C72.05342714 272.32792164 72.06557663 276.22928335 72.09479523 280.13085556 C72.1221205 283.80971858 72.13028588 287.48814604 72.12430573 291.16710091 C72.12591597 293.14763597 72.14734867 295.12812455 72.16955566 297.10853577 C72.12410426 307.02880453 70.30621317 315.36275384 63.37109375 322.76953125 C56.14284614 329.28326243 48.26817954 331.80780365 38.5859375 331.62109375 C31.51609672 330.84397988 24.83076711 328.28178053 19.671875 323.30078125 C17.51894606 324.37226209 15.37286855 325.45459707 13.234375 326.5546875 C11.9659375 327.20244141 11.9659375 327.20244141 10.671875 327.86328125 C9.82625 328.29769531 8.980625 328.73210937 8.109375 329.1796875 C0.7539187 332.5627259 -7.41289668 332.21605065 -15.015625 329.73828125 C-23.9589135 326.0895216 -29.5277206 320.12489618 -33.328125 311.30078125 C-34.32635785 308.05903153 -34.45154868 305.11726901 -34.44837952 301.73260498 C-34.45044151 300.03311203 -34.45044151 300.03311203 -34.45254517 298.29928589 C-34.44715225 296.4413591 -34.44715225 296.4413591 -34.44165039 294.54589844 C-34.44179642 293.23833588 -34.44194244 291.93077332 -34.4420929 290.58358765 C-34.44237979 287.00128038 -34.4365005 283.4190066 -34.42951894 279.83670712 C-34.42326743 276.09176236 -34.42268018 272.34681684 -34.42149353 268.60186768 C-34.41838552 261.51171683 -34.41017926 254.4215814 -34.40014404 247.33143735 C-34.38896646 239.25894892 -34.3834683 231.18645975 -34.37844861 223.11396551 C-34.36799622 206.50956173 -34.35040703 189.90517346 -34.328125 173.30078125 C-35.01193237 173.30744308 -35.69573975 173.31410492 -36.40026855 173.32096863 C-43.5382821 173.38750705 -50.67620704 173.43265878 -57.81445312 173.46557617 C-60.47608923 173.47893292 -63.13723786 173.50107939 -65.79882812 173.52709961 C-69.63157252 173.5636224 -73.4639879 173.58054017 -77.296875 173.59375 C-78.48051636 173.60923386 -79.66415771 173.62471771 -80.88366699 173.64067078 C-87.42278252 173.64199308 -92.4249808 173.204427 -98.328125 170.30078125 C-102.06731252 166.36984053 -103.45799271 163.85882145 -103.42578125 158.51171875 C-103.42255859 157.57070313 -103.41933594 156.6296875 -103.41601562 155.66015625 C-103.40763672 154.6753125 -103.39925781 153.69046875 -103.390625 152.67578125 C-103.38611328 151.68320312 -103.38160156 150.690625 -103.37695312 149.66796875 C-103.36514645 147.21217965 -103.348679 144.75651021 -103.328125 142.30078125 C-104.91367188 142.16349609 -104.91367188 142.16349609 -106.53125 142.0234375 C-112.35414605 140.91517025 -115.50246861 137.67623257 -119.328125 133.30078125 C-122.76688345 127.8660242 -123.17468744 121.56728944 -122.328125 115.30078125 C-120.48818127 108.21873367 -116.46371729 103.24197132 -110.328125 99.30078125 C-108.33634735 98.60993666 -106.33687086 97.94061289 -104.328125 97.30078125 C-104.3187793 96.05989746 -104.30943359 94.81901367 -104.29980469 93.54052734 C-104.25983217 88.92200259 -104.19405293 84.30413887 -104.12060547 79.68603516 C-104.09243797 77.690028 -104.07120248 75.69391019 -104.05712891 73.69775391 C-104.03564097 70.82266761 -103.98896074 67.94890596 -103.9375 65.07421875 C-103.93627136 64.18648773 -103.93504272 63.29875671 -103.93377686 62.38412476 C-103.80495427 56.89363754 -103.04254839 53.61765587 -99.328125 49.30078125 C-93.62651577 44.53233754 -86.89495327 44.80965588 -79.828125 45.05078125 C-78.30832031 45.07785156 -78.30832031 45.07785156 -76.7578125 45.10546875 C-74.28023893 45.15221542 -71.80470184 45.21771753 -69.328125 45.30078125 C-69.1420166 44.70837646 -68.9559082 44.11597168 -68.76416016 43.50561523 C-63.56837701 27.37765459 -52.85554904 15.75006465 -38.328125 7.30078125 C-25.84019114 1.30540317 -13.70836664 -0.00980516 0 0 Z M-87.328125 62.30078125 C-87.328125 73.85078125 -87.328125 85.40078125 -87.328125 97.30078125 C-83.368125 99.28078125 -79.408125 101.26078125 -75.328125 103.30078125 C-69.93940393 108.68950232 -68.54962571 114.74086569 -68.328125 122.30078125 C-69.22232892 128.87364101 -71.54615409 133.74122759 -76.328125 138.30078125 C-80.1718007 140.62300198 -82.84488873 141.404134 -87.328125 142.30078125 C-87.328125 146.92078125 -87.328125 151.54078125 -87.328125 156.30078125 C-63.898125 156.30078125 -40.468125 156.30078125 -16.328125 156.30078125 C-15.97850978 142.55302712 -15.97850978 142.55302712 -15.7421875 128.8046875 C-15.6707128 123.18788964 -15.58660548 117.57346042 -15.42285156 111.95849609 C-15.29150776 107.42596497 -15.22052497 102.89597522 -15.18959808 98.36168671 C-15.16759056 96.64072423 -15.12461013 94.91988587 -15.05936432 93.20001984 C-14.54288391 82.71928816 -14.54288391 82.71928816 -19.00915527 73.59411621 C-21.89267575 70.54479642 -25.08153655 67.95171381 -28.328125 65.30078125 C-28.988125 64.31078125 -29.648125 63.32078125 -30.328125 62.30078125 C-32.83090138 61.86178812 -32.83090138 61.86178812 -35.78759766 61.96020508 C-36.92862946 61.96043167 -38.06966125 61.96065826 -39.24526978 61.96089172 C-40.48175262 61.97637558 -41.71823547 61.99185944 -42.9921875 62.0078125 C-44.25453217 62.01205734 -45.51687683 62.01630219 -46.81747437 62.02067566 C-50.17473851 62.03464988 -53.53139432 62.06160823 -56.88848877 62.0947876 C-60.31362551 62.12546772 -63.73882694 62.13934082 -67.1640625 62.15429688 C-73.88576026 62.18488713 -80.60638975 62.24360203 -87.328125 62.30078125 Z " fill="#ffffff" transform="translate(130.328125,172.69921875)"/>
<path d="M0 0 C22.2803683 21.62496648 34.6908397 51.55608734 35.38037109 82.43286133 C35.61230509 116.36720464 23.69813349 145.08186675 0.02661133 169.47802734 C-20.74962426 190.3249304 -50.30117119 202.46063459 -79.66357422 202.85839844 C-109.20373643 202.81134975 -136.02848428 194.48630599 -158.97338867 175.47802734 C-159.42568848 174.94862549 -159.87798828 174.41922363 -160.34399414 173.8737793 C-163.73354217 170.97026625 -168.77045507 172.20679619 -172.97338867 172.47802734 C-179.52708359 173.02551972 -186.06232518 173.75395786 -192.59838867 174.47802734 C-195.2134092 174.76654127 -197.82856659 175.05318592 -200.44442749 175.33398438 C-202.06001759 175.50746633 -203.67515887 175.68520664 -205.28970337 175.86816406 C-219.41924553 177.38776967 -219.41924553 177.38776967 -223.53588867 174.97802734 C-225.60758713 171.37507351 -225.76466041 168.46970027 -224.97338867 164.47802734 C-223.20313739 160.51595797 -221.05915874 156.82056616 -218.81777954 153.10748291 C-217.70799102 151.2649635 -216.62455552 149.40902691 -215.54638672 147.54785156 C-212.19013109 141.77676491 -208.7457483 136.08180708 -205.13354492 130.46630859 C-198.0159702 119.92968442 -198.0159702 119.92968442 -197.66088867 107.79052734 C-198.39707557 105.67399002 -199.16473804 103.56795211 -199.97338867 101.47802734 C-204.87357032 74.48619345 -197.84969595 43.89696053 -183.03588867 21.04052734 C-163.44538949 -6.67753706 -136.33879027 -26.1738743 -102.50463867 -32.02978516 C-64.65185103 -37.3057268 -27.9050752 -26.1617771 0 0 Z M-154.97338867 13.47802734 C-155.80741211 14.31333984 -156.64143555 15.14865234 -157.50073242 16.00927734 C-177.05691528 36.60177074 -183.92117397 62.42898072 -183.31323242 90.10302734 C-183.06205476 96.3741884 -182.25011672 102.19029718 -180.62963867 108.26708984 C-179.03563634 116.06631555 -179.6924019 121.36983935 -183.91088867 128.10302734 C-184.31259277 128.77889893 -184.71429688 129.45477051 -185.12817383 130.15112305 C-185.96911659 131.56070797 -186.8188407 132.9650889 -187.67700195 134.36425781 C-188.95957665 136.45550672 -190.21781542 138.55956549 -191.46948242 140.66943359 C-194.1809816 145.23184711 -196.90977828 149.78334145 -199.73120117 154.27880859 C-201.13732282 156.34729868 -201.13732282 156.34729868 -200.97338867 158.47802734 C-199.89968018 158.35161865 -198.82597168 158.22520996 -197.71972656 158.0949707 C-193.70083718 157.6245369 -189.68052244 157.16741521 -185.65966797 156.71411133 C-183.92618422 156.51684226 -182.19309621 156.31606042 -180.46044922 156.11157227 C-177.95663051 155.8167085 -175.45161706 155.53489499 -172.94604492 155.25537109 C-172.18316666 155.16271469 -171.42028839 155.07005829 -170.6342926 154.97459412 C-157.39692651 153.5408621 -157.39692651 153.5408621 -153.22767639 156.87339783 C-152.16462395 158.01043383 -151.11726095 159.16218713 -150.07885742 160.32177734 C-133.30828091 177.496839 -107.25837253 186.2232808 -83.6887207 186.50537109 C-53.70295646 186.14968315 -28.82444383 174.77505633 -7.73291016 153.67431641 C10.31987667 134.90134574 18.49797942 109.1261145 19.02661133 83.47802734 C18.39793664 54.14361746 6.50247018 29.3015256 -14.16040039 8.94067383 C-32.81014772 -8.89119811 -57.66910614 -17.9878927 -83.32910156 -17.8203125 C-111.16406968 -17.10826238 -135.56043681 -6.2608014 -154.97338867 13.47802734 Z " fill="#ffffff" transform="translate(467.973388671875,40.52197265625)"/>
<path d="M0 0 C2.55364821 1.43576882 4.44384413 3.34228502 6.46875 5.44140625 C7.03452759 6.0019017 7.60030518 6.56239716 8.18322754 7.13987732 C9.36923988 8.32483182 10.54536088 9.51976063 11.71191406 10.72387695 C13.49702771 12.55944371 15.31878991 14.35151929 17.1484375 16.14257812 C18.29928252 17.30230337 19.44780389 18.46434006 20.59375 19.62890625 C21.13737183 20.16149551 21.68099365 20.69408478 22.24108887 21.24281311 C24.75288289 23.88302442 25.96150631 25.83129923 26.77539062 29.39819336 C25.63746087 34.68404904 22.7729398 37.25865325 19 41 C18.15606689 41.86214111 17.31213379 42.72428223 16.44262695 43.61254883 C13.99043618 46.10989324 11.51348813 48.58128166 9.02885437 51.04631042 C7.36886941 52.69333883 5.71219765 54.34363952 4.05627441 55.99475098 C-0.05412223 60.09189552 -4.16999034 64.18352904 -8.28570557 68.27532959 C-11.77518221 71.74495724 -15.26252108 75.21670797 -18.74714661 78.69120789 C-20.36626771 80.30392583 -21.98840784 81.91356218 -23.61071777 83.52307129 C-28.3941389 88.28281955 -33.06609473 93.08414351 -37.45568848 98.21524048 C-41.63466454 103.04487958 -46.19514016 107.54022862 -50.67919922 112.08422852 C-51.89934723 113.32613567 -53.11318035 114.57427686 -54.32080078 115.82836914 C-56.0849087 117.65941121 -57.86795827 119.46995104 -59.65625 121.27734375 C-60.18875366 121.83767807 -60.72125732 122.39801239 -61.26989746 122.97532654 C-64.05238885 125.74289818 -65.72307801 126.91924366 -69.58398438 128.04516602 C-75.61621421 127.96540883 -78.94799371 124.3017518 -83.04980469 120.19311523 C-83.52685349 119.71796478 -84.00390228 119.24281433 -84.4954071 118.75326538 C-86.05914776 117.19320711 -87.61560922 115.62610596 -89.171875 114.05859375 C-90.26056009 112.96871568 -91.34961606 111.87920798 -92.43902588 110.79005432 C-94.71490663 108.51261328 -96.9873992 106.2318632 -99.25732422 103.94848633 C-102.16988602 101.01888485 -105.08903797 98.09595994 -108.01050949 95.17524624 C-110.25667403 92.92881018 -112.50022611 90.67978063 -114.74289703 88.42985725 C-115.81881897 87.35075008 -116.89535035 86.2722502 -117.97249603 85.19436455 C-119.47345897 83.69123939 -120.97108651 82.18487156 -122.46777344 80.67749023 C-123.32095154 79.82050034 -124.17412964 78.96351044 -125.05316162 78.08055115 C-127.67229588 75.28152949 -128.67834942 73.0026551 -128.57421875 69.09375 C-127.36792326 64.6952848 -123.73732748 61.70626939 -120.58056641 58.5703125 C-118.75947654 56.76103693 -116.96425166 54.92764908 -115.16796875 53.09375 C-112.54066867 50.42801402 -109.90972898 47.76626621 -107.2578125 45.125 C-106.7023877 44.57070312 -106.14696289 44.01640625 -105.57470703 43.4453125 C-103.0293253 41.10908617 -101.23363212 40.0412292 -97.8125 39.4375 C-92.22599672 40.26173819 -89.8930421 43.06994007 -86 47 C-84.79366109 48.1947099 -83.58656573 49.38865625 -82.37890625 50.58203125 C-78.89822248 54.03414519 -75.44457949 57.51187948 -72 61 C-67.95229446 59.38658654 -65.25129863 56.51252837 -62.25341797 53.46459961 C-61.69033936 52.90020676 -61.12726074 52.3358139 -60.54711914 51.75431824 C-58.690832 49.89155064 -56.84162068 48.02191421 -54.9921875 46.15234375 C-53.70283102 44.85671613 -52.41295755 43.56160281 -51.12258911 42.26698303 C-47.72923369 38.86033119 -44.341492 35.4481556 -40.95532227 32.03436279 C-35.52931189 26.56521051 -30.09654636 21.10278845 -24.66055679 15.64355659 C-22.7603148 13.73306879 -20.86350901 11.81921705 -18.9670105 9.90501404 C-17.80738603 8.73856393 -16.64765281 7.57222193 -15.48779297 6.40600586 C-14.95892487 5.87040039 -14.43005676 5.33479492 -13.88516235 4.78295898 C-9.51345474 0.39758922 -6.2806604 -1.09585006 0 0 Z " fill="#ffffff" transform="translate(431,62)"/>
<path d="M0 0 C8.78433221 8.457169 14.25188333 19.52259997 15.265625 31.6875 C15.57111333 48.38752863 9.49265765 63.12519188 -1.9375 75.25 C-10.51730794 83.46095639 -20.83115068 87.92135659 -32.7109375 88.375 C-45.70493413 87.87160061 -56.30646617 81.85946973 -65.09765625 72.45703125 C-76.06755002 59.29781686 -80.35214713 45.07426964 -79.13818359 28.20898438 C-78.69961504 23.9278724 -77.69366374 20.16759603 -75.9375 16.25 C-75.60878906 15.50878906 -75.28007813 14.76757812 -74.94140625 14.00390625 C-69.05498605 2.25143408 -59.626931 -6.11914861 -47.3125 -10.5625 C-30.57237995 -16.0212348 -13.24733541 -10.8753463 0 0 Z " fill="#ffffff" transform="translate(181.9375,60.75)"/>
<path d="M0 0 C1.04465927 -0.00945648 2.08931854 -0.01891296 3.16563416 -0.02865601 C4.28861404 -0.02258331 5.41159393 -0.01651062 6.56860352 -0.01025391 C7.72747574 -0.01312408 8.88634796 -0.01599426 10.08033752 -0.01895142 C12.5306141 -0.0209925 14.98090695 -0.01545963 17.43115234 -0.00292969 C21.17981483 0.01310789 24.9273967 -0.00277038 28.67602539 -0.02197266 C31.05688714 -0.01998995 33.43774823 -0.01614571 35.81860352 -0.01025391 C36.93955917 -0.0163266 38.06051483 -0.02239929 39.21543884 -0.02865601 C40.26325027 -0.01919952 41.31106171 -0.00974304 42.390625 0 C43.76818214 0.00358017 43.76818214 0.00358017 45.17356873 0.00723267 C48.30569525 0.46855635 50.20315803 1.55028052 52.76000977 3.38818359 C54.02888415 5.92593237 53.91472286 7.7435895 53.95288086 10.5847168 C53.96894379 11.66956863 53.98500671 12.75442047 54.0015564 13.87214661 C54.0459358 18.83573845 54.08706803 23.79919571 54.11010742 28.76293945 C54.12667559 31.38282143 54.15397646 34.00265804 54.19213867 36.62231445 C54.24682918 40.39477042 54.26877048 44.16616614 54.28344727 47.93896484 C54.30611664 49.10994217 54.32878601 50.28091949 54.35214233 51.48738098 C54.33984867 56.20769177 54.27353583 59.44868762 51.98730469 63.63134766 C46.96317132 66.36632486 42.23001745 66.04300356 36.59985352 65.94677734 C34.82681602 65.94328026 34.82681602 65.94328026 33.01795959 65.93971252 C30.52231619 65.92997973 28.02669473 65.90820375 25.53125 65.87524414 C21.70808264 65.82582027 17.88620218 65.81376184 14.06274414 65.80810547 C11.63760022 65.79401994 9.21246749 65.77781571 6.78735352 65.75927734 C5.64249985 65.75391464 4.49764618 65.74855194 3.31809998 65.74302673 C2.25341995 65.72703934 1.18873993 65.71105194 0.09179688 65.69458008 C-1.31121422 65.67862038 -1.31121422 65.67862038 -2.74256897 65.66233826 C-5.46677816 65.36328793 -7.01557618 64.99383452 -9.23999023 63.38818359 C-11.05548614 59.99267188 -11.49173819 57.12473271 -11.4987793 53.31005859 C-11.50823578 51.83327637 -11.50823578 51.83327637 -11.5178833 50.32666016 C-11.51383484 49.27446289 -11.50978638 48.22226562 -11.50561523 47.13818359 C-11.50752869 46.04731445 -11.50944214 44.95644531 -11.51141357 43.83251953 C-11.51277268 41.52945728 -11.50909544 39.22638731 -11.50073242 36.92333984 C-11.49002927 33.40102914 -11.50063728 29.87922846 -11.51342773 26.35693359 C-11.51210609 24.11734914 -11.5095436 21.877765 -11.50561523 19.63818359 C-11.5096637 18.58598633 -11.51371216 17.53378906 -11.5178833 16.44970703 C-11.51157898 15.46518555 -11.50527466 14.48066406 -11.4987793 13.46630859 C-11.49718811 12.60424805 -11.49559692 11.7421875 -11.49395752 10.85400391 C-11.09788658 7.00847012 -10.20852851 4.35173122 -7.44248962 1.59994507 C-4.77091751 0.13011121 -3.04138816 0.0079112 0 0 Z " fill="#ffffff" transform="translate(287.239990234375,338.61181640625)"/>
<path d="M0 0 C1.66203712 -0.01913956 1.66203712 -0.01913956 3.35765076 -0.03866577 C5.15300011 -0.04200424 5.15300011 -0.04200424 6.98461914 -0.04541016 C8.21386612 -0.05206696 9.4431131 -0.05872375 10.70960999 -0.06558228 C13.31127422 -0.07571508 15.91296449 -0.0803991 18.51464844 -0.08007812 C22.50038648 -0.07983485 26.48539089 -0.12076891 30.47094727 -0.15869141 C32.99633409 -0.16455925 35.5217262 -0.16852886 38.04711914 -0.17041016 C39.24199448 -0.18478119 40.43686981 -0.19915222 41.66795349 -0.21395874 C43.33471886 -0.20472885 43.33471886 -0.20472885 45.03515625 -0.1953125 C46.01205917 -0.19816254 46.9889621 -0.20101257 47.99546814 -0.20394897 C51.39543482 0.44596532 52.55374487 1.51232689 54.58227539 4.29052734 C55.09020996 6.82591248 55.09020996 6.82591248 55.09985352 9.71411133 C55.11246216 10.7988121 55.1250708 11.88351288 55.13806152 13.00108337 C55.1299646 14.16781082 55.12186768 15.33453827 55.11352539 16.53662109 C55.11926575 18.34151756 55.11926575 18.34151756 55.12512207 20.18287659 C55.12784385 22.7273136 55.12046426 25.27177847 55.10375977 27.81616211 C55.0823747 31.7099456 55.10354511 35.60187983 55.12915039 39.49560547 C55.1265068 41.96761475 55.12138117 44.43962288 55.11352539 46.91162109 C55.12162231 48.07632431 55.12971924 49.24102753 55.13806152 50.44102478 C55.08713488 54.83489153 54.92329809 58.40950771 53.33032227 62.52490234 C48.62027637 65.5511152 43.55070009 64.98027037 38.08227539 64.91943359 C36.24052734 64.92305153 36.24052734 64.92305153 34.36157227 64.92674255 C31.76583628 64.92576313 29.17007966 64.91234725 26.57446289 64.88745117 C22.59717986 64.85315586 18.62211896 64.86678677 14.64477539 64.88623047 C12.12393258 64.87933203 9.60309552 64.86965968 7.08227539 64.85693359 C5.29466797 64.8643734 5.29466797 64.8643734 3.47094727 64.8719635 C2.36299805 64.85612717 1.25504883 64.84029083 0.11352539 64.82397461 C-1.34730469 64.81467674 -1.34730469 64.81467674 -2.83764648 64.80519104 C-6.15731622 64.14299656 -7.33251542 62.9069541 -9.41772461 60.29052734 C-10.39097207 57.37078497 -10.54961389 55.47973242 -10.56298828 52.43945312 C-10.56936813 51.45478058 -10.57574799 50.47010803 -10.58232117 49.45559692 C-10.58343399 48.39307709 -10.58454681 47.33055725 -10.58569336 46.23583984 C-10.58902176 45.14214081 -10.59235016 44.04844177 -10.59577942 42.92160034 C-10.60084483 40.60659201 -10.60318786 38.29157637 -10.60302734 35.9765625 C-10.60521163 32.43656355 -10.6233656 28.8968773 -10.64233398 25.35693359 C-10.64526842 23.10823674 -10.64725288 20.85953841 -10.64819336 18.61083984 C-10.65537888 17.55236847 -10.66256439 16.49389709 -10.66996765 15.40335083 C-10.66689102 14.41237396 -10.66381439 13.42139709 -10.66064453 12.40039062 C-10.66206955 11.53229767 -10.66349457 10.66420471 -10.66496277 9.76980591 C-10.38092922 6.92154703 -9.71437939 4.8406989 -8.41772461 2.29052734 C-5.0628166 0.053922 -3.92446605 0.03065088 0 0 Z " fill="#ffffff" transform="translate(286.417724609375,254.70947265625)"/>
<path d="M0 0 C1.10810028 -0.01606293 2.21620056 -0.03212585 3.35787964 -0.04867554 C8.42282567 -0.0930189 13.48763983 -0.13417792 18.55273438 -0.15722656 C21.22821193 -0.17057221 23.90292786 -0.19843505 26.578125 -0.23925781 C30.42748077 -0.29387545 34.27579782 -0.31587737 38.12548828 -0.33056641 C39.32350067 -0.35323578 40.52151306 -0.37590515 41.75582886 -0.39926147 C49.80948803 -0.37866463 49.80948803 -0.37866463 53.44824219 1.96777344 C55.41060552 7.04073226 55.26537022 11.92417156 55.22705078 17.31787109 C55.23279114 19.08735107 55.23279114 19.08735107 55.23864746 20.89257812 C55.24136659 23.38396052 55.23400548 25.87537145 55.21728516 28.36669922 C55.19587757 32.17919592 55.21708895 35.98980798 55.24267578 39.80224609 C55.24003251 42.22412525 55.23490754 44.64600324 55.22705078 47.06787109 C55.23514771 48.20756348 55.24324463 49.34725586 55.25158691 50.52148438 C55.20025159 54.85595673 55.02213423 58.35393704 53.44384766 62.41137695 C48.73968128 65.46097735 43.67020954 64.8826807 38.19580078 64.82177734 C36.35405273 64.82539528 36.35405273 64.82539528 34.47509766 64.8290863 C31.87936167 64.82810688 29.28360505 64.814691 26.68798828 64.78979492 C22.71070525 64.75549961 18.73564435 64.76913052 14.75830078 64.78857422 C12.23745797 64.78167578 9.71662091 64.77200343 7.19580078 64.75927734 C5.40819336 64.76671715 5.40819336 64.76671715 3.58447266 64.77430725 C2.47652344 64.75847092 1.36857422 64.74263458 0.22705078 64.72631836 C-1.2337793 64.71702049 -1.2337793 64.71702049 -2.72412109 64.70753479 C-6.04379083 64.04534031 -7.21899003 62.80929785 -9.30419922 60.19287109 C-10.2738402 57.28394816 -10.44138073 55.38660501 -10.46533203 52.35766602 C-10.47974335 50.88549873 -10.47974335 50.88549873 -10.4944458 49.3835907 C-10.49869568 48.32420792 -10.50294556 47.26482513 -10.50732422 46.17333984 C-10.51302429 45.08201248 -10.51872437 43.99068512 -10.52459717 42.86628723 C-10.53404786 40.55548065 -10.54058142 38.24466059 -10.54443359 35.93383789 C-10.55413234 32.40470761 -10.58515294 28.87616137 -10.61669922 25.34716797 C-10.62323007 23.10172872 -10.62848022 20.8562853 -10.63232422 18.61083984 C-10.64467102 17.55752975 -10.65701782 16.50421967 -10.66973877 15.41899109 C-10.65317979 9.95155416 -10.49752691 5.86770458 -7.30419922 1.19287109 C-4.74017191 -0.08914256 -2.87102743 0.03774051 0 0 Z " fill="#ffffff" transform="translate(286.30419921875,423.80712890625)"/>
<path d="M0 0 C3.03897759 1.9573076 5.4644224 4.43819228 8 7 C8.98358807 7.972151 9.96801289 8.94345589 10.953125 9.9140625 C13.65629325 12.58916271 16.3329935 15.28887023 19 18 C23.00632868 16.36672452 25.84716108 13.55715678 28.9375 10.625 C39.04227361 1.11761552 39.04227361 1.11761552 43.5625 0.5625 C48.66119501 1.21142482 48.66119501 1.21142482 51 4 C52.1875 7.1875 52.1875 7.1875 52 11 C50.13506193 14.11270239 47.58604475 16.4773387 45 19 C43.95148569 20.05697007 42.90472718 21.1156837 41.859375 22.17578125 C38.92743095 25.13904113 35.96949276 28.07439137 33 31 C35.8566983 34.49152015 38.74760394 37.80002283 42.03515625 40.890625 C42.57301758 41.40270508 43.11087891 41.91478516 43.66503906 42.44238281 C44.74706361 43.4653995 45.84125819 44.47572453 46.94824219 45.47167969 C49.76212773 48.14995629 50.97414829 49.89935918 51.94921875 53.6953125 C52 57 52 57 50.5 59.875 C47.21833937 62.66441154 45.29320173 63.07402072 41 63 C35.7491279 60.05565505 31.80116516 56.03950575 27.625 51.75 C26.98433594 51.1003125 26.34367187 50.450625 25.68359375 49.78125 C24.11770636 48.19199115 22.55671491 46.59823583 21 45 C17.86861876 46.37457546 15.90414194 47.9197537 13.609375 50.44140625 C12.66771484 51.44010742 12.66771484 51.44010742 11.70703125 52.45898438 C10.40760977 53.85566795 9.11839226 55.26191839 7.83984375 56.67773438 C4.68331135 59.99177195 2.33642627 62.36814243 -2.296875 63.08984375 C-6 63 -6 63 -9 61 C-11 58 -11 58 -11.75 54.6875 C-10.66019371 49.32928573 -7.8138739 46.77482399 -4 43 C-3.027849 42.01641193 -2.05654411 41.03198711 -1.0859375 40.046875 C1.58916271 37.34370675 4.28887023 34.6670065 7 32 C2.67216163 26.76103777 -1.96450996 21.98008422 -6.828125 17.234375 C-9.91521026 14.05845276 -10.94785425 12.54753041 -11.375 8.0625 C-11.28237782 5.10403874 -11.05650097 4.09040155 -9.4375 1.5 C-5.89383548 -0.68071663 -4.10900306 -0.75331723 0 0 Z " fill="#ffffff" transform="translate(391,424)"/>
<path d="M0 0 C2.5625 1.5625 2.5625 1.5625 4 4 C4.6875 7.25 4.6875 7.25 4 11 C-0.53163105 17.35277456 -6.63597341 22.78254063 -12.14453125 28.27734375 C-12.99552902 29.12929825 -13.84652679 29.98125275 -14.72331238 30.85902405 C-16.50791706 32.644305 -18.29376824 34.42834072 -20.08081055 36.21118164 C-22.82522162 38.95019661 -25.56420432 41.69455952 -28.30273438 44.43945312 C-30.04134577 46.17740442 -31.78026695 47.91504586 -33.51953125 49.65234375 C-34.34032669 50.47516342 -35.16112213 51.29798309 -36.00679016 52.14573669 C-36.76485458 52.90064896 -37.52291901 53.65556122 -38.30395508 54.43334961 C-38.97123123 55.09983017 -39.63850739 55.76631073 -40.32600403 56.45298767 C-42.66316548 58.61286 -43.92794542 58.98847127 -47.125 59.5 C-52.79024585 58.76900054 -55.06497181 55.96625858 -59 52 C-60.19440373 50.82849983 -61.38979969 49.65801082 -62.5859375 48.48828125 C-65.10732654 46.00569268 -67.62433097 43.51909149 -70.12109375 41.01171875 C-70.6514624 40.48022217 -71.18183105 39.94872559 -71.72827148 39.40112305 C-73.80395243 37.11424784 -74.01859935 35.83570577 -74.375 32.6875 C-74 29 -74 29 -71.875 26.0625 C-69 24 -69 24 -66.1875 23.25 C-58.74377134 25.00146557 -53.6488486 32.30516047 -49 38 C-43.94869316 33.77359515 -39.23067381 29.35355211 -34.60546875 24.66796875 C-33.59532463 23.6521447 -33.59532463 23.6521447 -32.56477356 22.61579895 C-30.4365508 20.47546339 -28.31163131 18.33189559 -26.1875 16.1875 C-23.37134131 13.34480656 -20.55192494 10.50540318 -17.73046875 7.66796875 C-17.08466354 7.0138652 -16.43885834 6.35976166 -15.77348328 5.68583679 C-15.17558487 5.08463516 -15.17558487 5.08463516 -14.48999023 4.29467773 C-13.88694565 3.68115952 -13.28390106 3.0676413 -12.6625824 2.43553162 C-8.87526135 -0.94870827 -4.47334466 -0.5561885 0 0 Z " fill="#ffffff" transform="translate(447,257)"/>
<path d="M0 0 C2.875 2.0625 2.875 2.0625 5 5 C5.47409085 9.03375026 5.53460526 11.19391994 3.26280212 14.61935425 C2.44896561 15.43574371 1.63512909 16.25213318 0.79663086 17.09326172 C-0.12175064 18.03048065 -1.04013214 18.96769958 -1.98634338 19.93331909 C-3.00180526 20.93293114 -4.01809709 21.93170067 -5.03515625 22.9296875 C-6.07323595 23.96994478 -7.11020211 25.01131437 -8.14610291 26.05374146 C-10.31838336 28.23182082 -12.50252272 30.39703103 -14.69604492 32.55371094 C-17.50036437 35.31257967 -20.27470556 38.09946575 -23.04096317 40.89643669 C-25.17729788 43.05060988 -27.32797872 45.18998154 -29.48330498 47.32513809 C-30.51175781 48.34709497 -31.53595353 49.37335527 -32.55568123 50.4040184 C-33.98612156 51.84504444 -35.43812731 53.26456511 -36.89086914 54.68310547 C-37.71027481 55.49472137 -38.52968048 56.30633728 -39.37391663 57.14254761 C-42.62591375 59.44271443 -45.05404339 59.8118343 -49 60 C-51.13476562 58.84545898 -51.13476562 58.84545898 -52.90625 57.05859375 C-53.57398438 56.40874512 -54.24171875 55.75889648 -54.9296875 55.08935547 C-55.61289062 54.39986816 -56.29609375 53.71038086 -57 53 C-58.42422546 51.69609029 -59.85132506 50.39531313 -61.28125 49.09765625 C-62.69010377 47.75533169 -64.0963494 46.41026451 -65.5 45.0625 C-66.22703125 44.39798828 -66.9540625 43.73347656 -67.703125 43.04882812 C-73.46186304 37.46869757 -73.46186304 37.46869757 -73.5625 32.65234375 C-73 29 -73 29 -71.5 26.5 C-68.02745526 24.41647316 -64.89459536 24.16264418 -61 25 C-58.25074151 26.80123832 -56.17928593 29.0565582 -54 31.5 C-53.41605469 32.12003906 -52.83210938 32.74007812 -52.23046875 33.37890625 C-50.80137168 34.9017146 -49.39798344 36.44857936 -48 38 C-44.87132012 36.61362935 -42.77379604 35.01061836 -40.38061523 32.57592773 C-39.34450356 31.52990639 -39.34450356 31.52990639 -38.28746033 30.4627533 C-37.18417137 29.33456932 -37.18417137 29.33456932 -36.05859375 28.18359375 C-35.29450699 27.41193375 -34.53042023 26.64027374 -33.74317932 25.8452301 C-31.30310271 23.38072297 -28.86956142 20.90991563 -26.4375 18.4375 C-23.23355771 15.18051126 -20.02317618 11.93007744 -16.80859375 8.68359375 C-16.07104355 7.92944687 -15.33349335 7.17529999 -14.57359314 6.39830017 C-13.5422097 5.35700706 -13.5422097 5.35700706 -12.48999023 4.29467773 C-11.88694565 3.68115952 -11.28390106 3.0676413 -10.6625824 2.43553162 C-7.44844525 -0.33966647 -4.06986282 -0.48838354 0 0 Z " fill="#ffffff" transform="translate(446,341)"/>
</svg>
