<svg width="21" height="21" viewBox="0 0 21 21" fill="none" xmlns="http://www.w3.org/2000/svg">
<g clip-path="url(#clip0_69_1219)">
<path d="M20.3405 2.58391C19.9778 2.17297 19.4617 1.93739 18.9246 1.93739H17.0883C16.9962 0.631448 16.1094 0.812972 15.7641 0.812972C15.3996 0.812972 10.8999 0.812972 10.8999 0.812972C10.8999 0.812972 6.40028 0.812972 6.03583 0.812972C5.69044 0.812972 4.80353 0.631487 4.71145 1.93739H2.87513C2.3381 1.93739 1.82204 2.17305 1.45927 2.58391C1.01958 3.08203 0.829853 3.8009 0.923096 4.61153C0.940361 4.97164 1.12224 6.82145 3.03599 8.13715C4.00856 8.80579 4.94333 9.14668 5.79372 9.32016C5.98009 9.36043 6.16864 9.39661 6.36188 9.42485C6.36454 9.42782 6.36716 9.43086 6.36989 9.43379C10.3488 13.6209 9.86286 11.1986 9.86286 15.0367C9.86286 16.5247 7.80149 16.0431 7.80149 17.1852C7.80149 18.3272 6.19489 17.3873 6.3436 18.7423C6.4347 19.5729 8.89509 20.1956 10.9 20.1956C12.9048 20.1956 15.3653 19.5729 15.4564 18.7423C15.605 17.3873 13.9984 18.3272 13.9984 17.1852C13.9984 16.0431 11.9371 16.5247 11.9371 15.0367C11.9371 11.1986 11.4512 13.6209 15.4301 9.43379C15.4356 9.42797 15.4406 9.4218 15.4461 9.41594C16.4369 9.28762 17.5733 8.95582 18.764 8.13719C20.6776 6.82149 20.8595 4.97168 20.8767 4.61157C20.97 3.8009 20.7802 3.08196 20.3405 2.58391ZM19.3067 4.45176L19.2995 4.49051L19.3005 4.54336C19.2967 4.6459 19.2221 5.90727 17.87 6.83692C17.5002 7.09121 17.1424 7.28395 16.7944 7.43364C16.7157 7.46551 16.6372 7.49743 16.5567 7.5252C17.0318 6.18731 17.109 4.6909 17.1103 3.51528H18.9246C18.9854 3.51528 19.0752 3.53489 19.1576 3.62809C19.2979 3.78707 19.3523 4.08723 19.3067 4.45176ZM9.78716 8.47434C9.63853 8.6618 9.41856 8.75946 9.19665 8.75946C9.03267 8.75946 8.86759 8.70621 8.72919 8.59641C6.83931 7.09754 6.68099 5.03996 6.68099 3.22907C6.68099 2.81321 7.01821 2.47606 7.43407 2.47606C7.84993 2.47606 8.18708 2.81321 8.18708 3.22907C8.18708 4.81797 8.30017 6.33383 9.66505 7.41637C9.99091 7.67485 10.0456 8.14852 9.78716 8.47434ZM3.92981 6.83692C2.57888 5.90813 2.5031 4.64828 2.49923 4.54367L2.50009 4.50774L2.49306 4.45172C2.44743 4.08727 2.50181 3.78703 2.6422 3.62805C2.72454 3.53485 2.81431 3.51524 2.87513 3.51524H4.68938C4.6906 4.51887 4.74927 5.75575 5.06126 6.92875C5.11329 7.13102 5.17095 7.33211 5.23872 7.52973C4.81825 7.37071 4.3827 7.14828 3.92981 6.83692Z" fill="#fff"/>
</g>
<defs>
<clipPath id="clip0_69_1219">
<rect width="20" height="20" fill="white" transform="translate(0.899902 0.5)"/>
</clipPath>
</defs>
</svg>
