<svg width="370" height="262" viewBox="0 0 370 262" fill="none" xmlns="http://www.w3.org/2000/svg">
<rect x="245" y="80" width="125" height="164" fill="#9087E5"/>
<path d="M245 64H351.818L370 80H245L245 64Z" fill="#AEA7EC"/>
<path d="M306.79 157.597C303.608 157.597 300.774 157.05 298.288 155.956C295.817 154.848 293.864 153.328 292.429 151.396C291.008 149.45 290.277 147.206 290.234 144.663H299.524C299.581 145.729 299.929 146.666 300.568 147.476C301.222 148.271 302.088 148.889 303.168 149.33C304.247 149.77 305.462 149.99 306.811 149.99C308.217 149.99 309.46 149.741 310.54 149.244C311.619 148.747 312.464 148.058 313.075 147.178C313.686 146.297 313.991 145.281 313.991 144.131C313.991 142.966 313.665 141.936 313.011 141.041C312.372 140.132 311.449 139.422 310.241 138.911C309.048 138.399 307.628 138.143 305.98 138.143H301.91V131.368H305.98C307.372 131.368 308.601 131.126 309.666 130.643C310.746 130.161 311.584 129.493 312.18 128.641C312.777 127.774 313.075 126.766 313.075 125.615C313.075 124.521 312.812 123.562 312.287 122.739C311.776 121.901 311.051 121.247 310.114 120.778C309.19 120.31 308.111 120.075 306.875 120.075C305.625 120.075 304.481 120.303 303.445 120.757C302.408 121.197 301.577 121.83 300.952 122.653C300.327 123.477 299.993 124.443 299.95 125.551H291.108C291.151 123.037 291.868 120.821 293.26 118.903C294.652 116.986 296.527 115.487 298.885 114.408C301.257 113.314 303.935 112.767 306.918 112.767C309.929 112.767 312.564 113.314 314.822 114.408C317.081 115.501 318.835 116.979 320.085 118.839C321.349 120.686 321.974 122.76 321.96 125.061C321.974 127.504 321.214 129.543 319.68 131.176C318.16 132.81 316.179 133.847 313.736 134.287V134.628C316.946 135.04 319.389 136.155 321.065 137.973C322.756 139.777 323.594 142.036 323.58 144.749C323.594 147.234 322.876 149.443 321.428 151.375C319.993 153.307 318.011 154.827 315.483 155.935C312.955 157.043 310.057 157.597 306.79 157.597Z" fill="white"/>
<rect y="48" width="123" height="164" fill="#9087E5"/>
<path d="M16.7727 32H123V48H0L16.7727 32Z" fill="#AEA7EC"/>
<path d="M40.0897 146V135.886L61.3112 117.307C62.9022 115.867 64.2563 114.551 65.3737 113.358C66.4912 112.146 67.3434 110.934 67.9306 109.722C68.5177 108.491 68.8112 107.155 68.8112 105.716C68.8112 104.106 68.4609 102.733 67.7601 101.597C67.0593 100.441 66.0934 99.5511 64.8624 98.9261C63.6313 98.3011 62.2203 97.9886 60.6294 97.9886C59.0196 97.9886 57.6086 98.3201 56.3965 98.983C55.1843 99.6269 54.2374 100.564 53.5556 101.795C52.8927 103.027 52.5612 104.523 52.5612 106.284H39.2374C39.2374 102.326 40.1275 98.9072 41.9078 96.0284C43.6881 93.1496 46.1881 90.9337 49.4078 89.3807C52.6465 87.8087 56.4059 87.0227 60.6862 87.0227C65.0991 87.0227 68.9343 87.7614 72.1919 89.2386C75.4495 90.7159 77.9684 92.7803 79.7487 95.4318C81.548 98.0644 82.4476 101.123 82.4476 104.608C82.4476 106.824 82.0025 109.021 81.1124 111.199C80.2222 113.377 78.6219 115.782 76.3112 118.415C74.0196 121.047 70.762 124.201 66.5385 127.875L59.5783 134.295V134.665H83.1578V146H40.0897Z" fill="white"/>
<rect x="123" y="16" width="122" height="246" fill="url(#paint0_linear_67_3861)"/>
<path d="M140.745 0H227.255L245 16H123L140.745 0Z" fill="#CDC9F3"/>
<path d="M197.473 49.2727V122H182.096V63.8679H181.67L165.015 74.3082V60.6719L183.019 49.2727H197.473Z" fill="white"/>
<defs>
<linearGradient id="paint0_linear_67_3861" x1="184" y1="16" x2="184" y2="189" gradientUnits="userSpaceOnUse">
<stop stop-color="#9087E5"/>
<stop offset="1" stop-color="#CDC9F3"/>
</linearGradient>
</defs>
</svg>
