<svg width="25" height="25" viewBox="0 0 25 25" fill="none" xmlns="http://www.w3.org/2000/svg">
<path d="M12.2998 12.5C14.5089 12.5 16.2998 10.7091 16.2998 8.5C16.2998 6.29086 14.5089 4.5 12.2998 4.5C10.0907 4.5 8.2998 6.29086 8.2998 8.5C8.2998 10.7091 10.0907 12.5 12.2998 12.5Z" fill="white"/>
<path d="M19.2285 19.5033C19.3071 20.05 18.8521 20.5 18.2998 20.5L6.2998 20.5C5.74752 20.5 5.29246 20.05 5.37109 19.5033C5.58512 18.0153 6.27452 16.6258 7.35006 15.5503C8.66281 14.2375 10.4433 13.5 12.2998 13.5C14.1563 13.5 15.9368 14.2375 17.2496 15.5503C18.3251 16.6258 19.0145 18.0153 19.2285 19.5033Z" fill="white"/>
<path d="M8.30952 12.7276C8.66253 12.4089 8.57938 11.8739 8.29441 11.4932C7.66983 10.6587 7.29991 9.62254 7.29991 8.5C7.29991 8.02901 7.04754 7.55593 6.57853 7.51276C6.48682 7.50431 6.39392 7.5 6.30002 7.5C4.64316 7.5 3.30002 8.84315 3.30002 10.5C3.30002 12.1569 4.64316 13.5 6.30002 13.5C7.07297 13.5 7.77764 13.2077 8.30952 12.7276Z" fill="white"/>
<path d="M6.64305 14.8431C6.76419 14.722 6.69667 14.5128 6.52553 14.5051C6.45057 14.5017 6.37538 14.5 6.30002 14.5C4.97393 14.5 3.70216 15.0268 2.76448 15.9645C2.06448 16.6645 1.59348 17.5506 1.39967 18.5066C1.28994 19.0479 1.74773 19.5 2.30002 19.5L4.22639 19.5C4.30524 19.5 4.37015 19.439 4.38138 19.361C4.62598 17.6604 5.41384 16.0724 6.64305 14.8431Z" fill="white"/>
<path d="M20.2184 19.361C20.2297 19.439 20.2946 19.5 20.3734 19.5H22.3C22.8523 19.5 23.3101 19.0479 23.2004 18.5066C23.0066 17.5506 22.5355 16.6645 21.8356 15.9645C20.8979 15.0268 19.6261 14.5 18.3 14.5C18.2246 14.5 18.1493 14.5017 18.0743 14.5051C17.9031 14.5128 17.8356 14.722 17.9568 14.8431C19.186 16.0724 19.9738 17.6604 20.2184 19.361Z" fill="white"/>
<path d="M16.3055 11.4931C16.0205 11.8738 15.9374 12.4087 16.2903 12.7274C16.8222 13.2076 17.527 13.5 18.3 13.5C19.9569 13.5 21.3 12.1569 21.3 10.5C21.3 8.84315 19.9569 7.5 18.3 7.5C18.206 7.5 18.113 7.50432 18.0212 7.51278C17.5522 7.55601 17.2999 8.02905 17.2999 8.5C17.2999 9.6225 16.93 10.6586 16.3055 11.4931Z" fill="white"/>
</svg>
