<svg width="20" height="20" viewBox="0 0 20 20" fill="none" xmlns="http://www.w3.org/2000/svg">
<path fill-rule="evenodd" clip-rule="evenodd" d="M10 3.97674C6.67345 3.97674 3.97674 6.67345 3.97674 10C3.97674 13.3266 6.67345 16.0233 10 16.0233C13.3266 16.0233 16.0233 13.3266 16.0233 10C16.0233 6.67345 13.3266 3.97674 10 3.97674ZM3 10C3 6.13401 6.13401 3 10 3C13.866 3 17 6.13401 17 10C17 13.866 13.866 17 10 17C6.13401 17 3 13.866 3 10Z" fill="white"/>
<path d="M12.2229 9.31042C12.7319 9.611 12.7319 10.389 12.2229 10.6896L9.14926 12.5042C8.65451 12.7964 8.04651 12.4161 8.04651 11.8147V8.18531C8.04651 7.58384 8.65451 7.20365 9.14926 7.49575L12.2229 9.31042Z" fill="white"/>
<path fill-rule="evenodd" clip-rule="evenodd" d="M8.67128 7.91952C8.59749 7.96567 8.53488 8.05607 8.53488 8.18531V11.8147C8.53488 11.9439 8.5975 12.0343 8.67129 12.0805C8.7427 12.1251 8.82261 12.13 8.90096 12.0837L11.9746 10.2691C12.0609 10.218 12.1163 10.1206 12.1163 10C12.1163 9.8794 12.0609 9.78198 11.9746 9.73097L8.90097 7.9163C8.82261 7.87004 8.74269 7.87487 8.67128 7.91952ZM7.55814 8.18531C7.55814 7.25902 8.53243 6.56444 9.39755 7.07521L12.4712 8.88987C13.3002 9.37945 13.3003 10.6205 12.4712 11.1101L9.39755 12.9248C8.53241 13.4356 7.55814 12.7409 7.55814 11.8147V8.18531Z" fill="white"/>
<circle cx="10" cy="10" r="9" stroke="white" stroke-linecap="round" stroke-dasharray="2 2"/>
</svg>
