<svg width="14" height="14" viewBox="0 0 14 14" fill="none" xmlns="http://www.w3.org/2000/svg">
<path fill-rule="evenodd" clip-rule="evenodd" d="M7 0.976744C3.67345 0.976744 0.976744 3.67345 0.976744 7C0.976744 10.3266 3.67345 13.0233 7 13.0233C10.3266 13.0233 13.0233 10.3266 13.0233 7C13.0233 3.67345 10.3266 0.976744 7 0.976744ZM0 7C0 3.13401 3.13401 0 7 0C10.866 0 14 3.13401 14 7C14 10.866 10.866 14 7 14C3.13401 14 0 10.866 0 7Z" fill="white"/>
<path d="M9.22288 6.31042C9.73189 6.611 9.73189 7.38901 9.22288 7.68958L6.14926 9.50424C5.65451 9.79636 5.04651 9.41614 5.04651 8.81466V5.18531C5.04651 4.58384 5.65451 4.20365 6.14926 4.49575L9.22288 6.31042Z" fill="white"/>
<path fill-rule="evenodd" clip-rule="evenodd" d="M5.67128 4.91952C5.59749 4.96567 5.53488 5.05607 5.53488 5.18531V8.81466C5.53488 8.94392 5.5975 9.03433 5.67129 9.08047C5.7427 9.12513 5.82261 9.12996 5.90096 9.0837L8.97455 7.26906C9.06091 7.21804 9.11626 7.1206 9.11626 7C9.11626 6.8794 9.06094 6.78198 8.97458 6.73097L5.90097 4.9163C5.82261 4.87004 5.74269 4.87487 5.67128 4.91952ZM4.55814 5.18531C4.55814 4.25902 5.53243 3.56444 6.39755 4.07521L9.47117 5.88987C10.3002 6.37945 10.3003 7.62053 9.4712 8.11011L6.39755 9.92478C5.53241 10.4356 4.55814 9.74092 4.55814 8.81466V5.18531Z" fill="white"/>
</svg>
