<svg width="219" height="254" viewBox="0 0 219 254" fill="none" xmlns="http://www.w3.org/2000/svg">
<mask id="mask0_69_1991" style="mask-type:luminance" maskUnits="userSpaceOnUse" x="0" y="0" width="219" height="254">
<path d="M218.44 0H0V254H218.44V0Z" fill="white"/>
</mask>
<g mask="url(#mask0_69_1991)">
<path d="M41.0981 -0.407043H177.437C200.017 -0.407043 218.215 17.7906 218.215 40.3708V172.613C218.215 187 210.784 200.338 198.398 207.579L130.276 248.548C117.318 256.36 101.122 256.36 88.3547 248.548L20.0423 207.579C7.65645 200.338 0.224976 187 0.224976 172.613V40.3708C0.224976 17.7906 18.5178 -0.407043 41.0981 -0.407043Z" fill="url(#paint0_linear_69_1991)"/>
<mask id="mask1_69_1991" style="mask-type:alpha" maskUnits="userSpaceOnUse" x="0" y="-1" width="219" height="256">
<path d="M41.0981 -0.407043H177.437C200.017 -0.407043 218.215 17.7906 218.215 40.3708V172.613C218.215 187 210.784 200.338 198.398 207.579L130.276 248.548C117.318 256.36 101.122 256.36 88.3547 248.548L20.0423 207.579C7.65645 200.338 0.224976 187 0.224976 172.613V40.3708C0.224976 17.7906 18.5178 -0.407043 41.0981 -0.407043Z" fill="url(#paint1_linear_69_1991)"/>
</mask>
<g mask="url(#mask1_69_1991)">
<path d="M212.282 -15.5592L182.814 -34.9063C174.95 -40.0276 164.334 -37.8521 159.118 -30.0825L106.01 46.5707C104.682 48.3709 104.681 50.8351 105.723 52.8259L138.019 108.19C139.061 109.991 140.956 111.129 143.041 111.225C145.316 111.226 147.591 110.089 149.014 108.1L217.106 8.32686L217.201 8.23212C222.417 0.27295 220.242 -10.3431 212.282 -15.5592Z" fill="#E9E9E9"/>
<path d="M149.017 99.9487L59.7903 -29.745C57.2329 -33.5372 53.4428 -36.0978 48.9887 -37.0474C44.5345 -37.9971 39.89 -37.146 36.0978 -34.5886L6.61376 -15.2662C-1.34978 -10.0567 -3.53412 0.55748 1.67534 8.52102L1.77008 8.61584L69.4955 106.36C70.2532 107.498 71.4851 108.162 72.812 108.163L143.136 111.225C144.558 111.225 145.98 110.847 147.212 109.994C150.435 107.626 151.29 103.172 149.017 99.9487Z" fill="#F5F5F5"/>
</g>
<mask id="mask2_69_1991" style="mask-type:alpha" maskUnits="userSpaceOnUse" x="0" y="-1" width="219" height="256">
<path d="M41.0981 -0.407043H177.437C200.017 -0.407043 218.215 17.7906 218.215 40.3708V172.613C218.215 187 210.784 200.338 198.398 207.579L130.276 248.548C117.318 256.36 101.122 256.36 88.3547 248.548L20.0423 207.579C7.65645 200.338 0.224976 187 0.224976 172.613V40.3708C0.224976 17.7906 18.5178 -0.407043 41.0981 -0.407043Z" fill="url(#paint2_linear_69_1991)"/>
</mask>
<g mask="url(#mask2_69_1991)">
<path d="M170.796 146.778C170.782 180.614 143.19 208.183 109.354 208.169C75.5185 208.155 47.9496 180.563 47.9638 146.727C47.978 112.891 75.5699 85.3223 109.406 85.3364C143.241 85.3506 170.81 112.943 170.796 146.778Z" fill="#B4C2D0"/>
<path d="M141.129 144.952L131.445 154.699L133.959 168.115C134.585 171.327 133.315 174.478 130.79 176.419C128.17 178.361 124.859 178.705 121.989 177.239L109.746 171.107L97.7294 177.672C96.5094 178.358 95.1878 178.666 93.8611 178.689C92.1553 178.72 90.4395 178.182 88.9046 177.166C86.2174 175.319 84.9297 172.213 85.4408 168.981L87.4749 155.484L77.4487 146.089C75.1337 143.855 74.2217 140.554 75.2099 137.503C76.1034 134.454 78.7179 132.227 81.9314 131.695L95.4469 129.463L101.292 117.036C102.663 114.168 105.568 112.315 108.695 112.259C110.306 112.23 111.831 112.677 113.171 113.411C114.513 114.241 115.576 115.359 116.359 116.767L122.644 128.978L136.231 130.726C139.461 131.142 142.058 133.276 143.155 136.29C144.158 139.4 143.365 142.732 141.129 144.952Z" fill="#E7ECF4"/>
</g>
<mask id="mask3_69_1991" style="mask-type:alpha" maskUnits="userSpaceOnUse" x="47" y="85" width="124" height="124">
<path d="M170.796 146.778C170.782 180.614 143.19 208.183 109.354 208.169C75.5185 208.155 47.9496 180.563 47.9638 146.727C47.978 112.891 75.5699 85.3223 109.406 85.3364C143.241 85.3506 170.81 112.943 170.796 146.778Z" fill="#B4C2D0"/>
<path d="M141.129 144.952L131.445 154.699L133.959 168.115C134.585 171.327 133.315 174.478 130.79 176.419C128.17 178.361 124.859 178.705 121.989 177.239L109.746 171.107L97.7294 177.672C96.5094 178.358 95.1878 178.666 93.8611 178.689C92.1553 178.72 90.4395 178.182 88.9046 177.166C86.2174 175.319 84.9297 172.213 85.4408 168.981L87.4749 155.484L77.4487 146.089C75.1337 143.855 74.2217 140.554 75.2099 137.503C76.1034 134.454 78.7179 132.227 81.9314 131.695L95.4469 129.463L101.292 117.036C102.663 114.168 105.568 112.315 108.695 112.259C110.306 112.23 111.831 112.677 113.171 113.411C114.513 114.241 115.576 115.359 116.359 116.767L122.644 128.978L136.231 130.726C139.461 131.142 142.058 133.276 143.155 136.29C144.158 139.4 143.365 142.732 141.129 144.952Z" fill="#E7ECF4"/>
</mask>
<g mask="url(#mask3_69_1991)">
<g opacity="0.427545">
<path d="M245.728 -38.5714L168.483 248.463H144.119L221.363 -38.5714H245.728Z" fill="#F5F5F5"/>
</g>
</g>
</g>
<defs>
<linearGradient id="paint0_linear_69_1991" x1="0.272609" y1="-0.45278" x2="218.286" y2="254.524" gradientUnits="userSpaceOnUse">
<stop stop-color="#DAE4EF"/>
<stop offset="0.5" stop-color="#9BA9B7"/>
<stop offset="1" stop-color="#495865"/>
</linearGradient>
<linearGradient id="paint1_linear_69_1991" x1="0.272609" y1="-0.45278" x2="218.286" y2="254.524" gradientUnits="userSpaceOnUse">
<stop stop-color="#DAE4EF"/>
<stop offset="0.5" stop-color="#9BA9B7"/>
<stop offset="1" stop-color="#495865"/>
</linearGradient>
<linearGradient id="paint2_linear_69_1991" x1="0.272609" y1="-0.45278" x2="218.286" y2="254.524" gradientUnits="userSpaceOnUse">
<stop stop-color="#DAE4EF"/>
<stop offset="0.5" stop-color="#9BA9B7"/>
<stop offset="1" stop-color="#495865"/>
</linearGradient>
</defs>
</svg>
