<svg width="160" height="160" viewBox="0 0 160 160" fill="none" xmlns="http://www.w3.org/2000/svg">
<path d="M61.1405 28.3496C66.9716 12.0189 69.8871 3.85358 74.1283 1.51771C77.8026 -0.505903 82.1974 -0.505903 85.8717 1.51771C90.1129 3.85358 93.0284 12.0189 98.8595 28.3496L101.67 36.2203C103.355 40.9408 104.198 43.301 105.651 45.0714C106.935 46.636 108.554 47.8634 110.377 48.6541C112.439 49.5488 114.851 49.6558 119.675 49.8698L127.717 50.2265C144.403 50.9667 152.747 51.3368 156.186 54.8238C159.166 57.8447 160.524 62.2061 159.815 66.4776C158.997 71.4083 152.455 76.8248 139.373 87.6579L133.067 92.879C129.286 96.0104 127.395 97.5761 126.23 99.565C125.201 101.323 124.582 103.309 124.425 105.362C124.247 107.685 124.895 110.112 126.19 114.964L128.35 123.056C132.832 139.844 135.073 148.238 132.957 152.729C131.125 156.619 127.569 159.315 123.457 159.931C118.71 160.643 111.752 155.825 97.8348 146.189L91.1275 141.546C87.1048 138.76 85.0934 137.368 82.9207 136.827C81.0005 136.348 78.9995 136.348 77.0793 136.827C74.9066 137.368 72.8952 138.76 68.8725 141.546L62.1652 146.189C48.2485 155.825 41.2901 160.643 36.5431 159.931C32.4307 159.315 28.8751 156.619 27.0426 152.729C24.9272 148.238 25.1855 138.292 27.6855 130.55C30.1855 122.808 32.6855 120.227 36.5431 116.271C47.6855 107.324 95.1855 86.5595 87.6855 84.0386C80.1855 81.5178 32.8764 97.1876 20.1855 86.6791L13.8802 83.0597C0.797392 72.2266 1.00316 71.4083 0.184716 66.4776C-0.524323 62.2061 0.833761 57.8447 3.8136 54.8238C7.25325 51.3368 15.5966 50.9667 32.2832 50.2265L40.3254 49.8698C45.1488 49.6558 47.5605 49.5488 49.6232 48.6541C51.446 47.8634 53.0649 46.636 54.349 45.0714C55.8019 43.301 56.6446 40.9408 58.3301 36.2203L61.1405 28.3496Z" fill="#93792b"/>
</svg>
