<svg width="16" height="16" viewBox="0 0 16 16" fill="none" xmlns="http://www.w3.org/2000/svg">
<path fill-rule="evenodd" clip-rule="evenodd" d="M1.0955 7.06724C5.38958 5.20238 8.24822 3.96323 9.68367 3.36206C13.7692 1.6567 14.628 1.36224 15.1801 1.34998C15.3028 1.34998 15.5727 1.37451 15.7567 1.52174C15.904 1.64443 15.9408 1.80392 15.9653 1.92661C15.9898 2.0493 16.0144 2.30694 15.9898 2.50324C15.769 4.83432 14.812 10.4902 14.3213 13.0912C14.1127 14.1954 13.7078 14.5635 13.3152 14.6003C12.4564 14.6739 11.8062 14.0359 10.9842 13.4961C9.68367 12.6496 8.95981 12.122 7.69612 11.2877C6.23613 10.3307 7.18083 9.80319 8.01511 8.94437C8.23595 8.72353 12.0025 5.28827 12.0761 4.98154C12.0884 4.94474 12.0884 4.79751 12.0025 4.7239C11.9166 4.65029 11.7939 4.67482 11.6958 4.69936C11.5608 4.7239 9.49963 6.09801 5.48773 8.80941C4.89883 9.21428 4.37127 9.41059 3.89279 9.39832C3.36523 9.38605 2.35919 9.10387 1.59852 8.85849C0.67836 8.56404 -0.0577693 8.40454 0.00357478 7.88925C0.0403812 7.61934 0.408445 7.34943 1.0955 7.06724Z" fill="white"/>
</svg>
