<svg width="38" height="38" viewBox="0 0 38 38" fill="none" xmlns="http://www.w3.org/2000/svg">
<g clip-path="url(#clip0_10_309)">
<path d="M19 38C29.4934 38 38 29.4934 38 19C38 8.50659 29.4934 0 19 0C8.50659 0 0 8.50659 0 19C0 29.4934 8.50659 38 19 38Z" fill="url(#paint0_linear_10_309)"/>
<path d="M12.8613 20.3889L15.1155 26.6282C15.1155 26.6282 15.3973 27.212 15.6991 27.212C16.0009 27.212 20.4895 22.5424 20.4895 22.5424L25.4809 12.9015L12.9417 18.7783L12.8613 20.3889Z" fill="#C8DAEA"/>
<path d="M15.8501 21.989L15.4174 26.588C15.4174 26.588 15.2362 27.9971 16.6451 26.588C18.0539 25.1788 19.4025 24.0922 19.4025 24.0922" fill="#A9C6D8"/>
<path d="M12.902 20.6115L8.26501 19.1006C8.26501 19.1006 7.71084 18.8758 7.88928 18.366C7.92602 18.2608 8.00012 18.1714 8.22178 18.0176C9.24921 17.3015 27.2386 10.8356 27.2386 10.8356C27.2386 10.8356 27.7465 10.6645 28.0461 10.7783C28.1202 10.8013 28.1869 10.8435 28.2393 10.9007C28.2917 10.9578 28.3281 11.0279 28.3445 11.1037C28.3769 11.2376 28.3904 11.3754 28.3847 11.513C28.3833 11.6321 28.3689 11.7424 28.358 11.9155C28.2484 13.6833 24.9697 26.8769 24.9697 26.8769C24.9697 26.8769 24.7735 27.6489 24.0706 27.6753C23.8979 27.6809 23.7258 27.6517 23.5647 27.5893C23.4035 27.527 23.2565 27.4328 23.1325 27.3124C21.7533 26.1261 16.9862 22.9223 15.9328 22.2178C15.909 22.2016 15.889 22.1805 15.8741 22.1559C15.8592 22.1313 15.8497 22.1038 15.8463 22.0753C15.8316 22.001 15.9124 21.909 15.9124 21.909C15.9124 21.909 24.2131 14.5307 24.434 13.7561C24.4511 13.6961 24.3865 13.6665 24.2997 13.6928C23.7484 13.8956 14.1911 19.9311 13.1363 20.5972C13.0604 20.6202 12.9801 20.6251 12.902 20.6115Z" fill="white"/>
</g>
<defs>
<linearGradient id="paint0_linear_10_309" x1="19" y1="38" x2="19" y2="0" gradientUnits="userSpaceOnUse">
<stop stop-color="#1D93D2"/>
<stop offset="1" stop-color="#38B0E3"/>
</linearGradient>
<clipPath id="clip0_10_309">
<rect width="38" height="38" fill="white"/>
</clipPath>
</defs>
</svg>
